<svg id="face2" xmlns="http://www.w3.org/2000/svg" viewBox="0 0 686 686"><defs><style>.cls-1{fill:#e7e4bb;}</style></defs><title>face2</title><path class="cls-1" d="M348,10C229.91,10,125.76,69.68,64.06,160.53L69.57,154,169.2,120.1H201l17-4.24.17.11.47-.11,6.11,4.07A101.14,101.14,0,0,1,236,116.16a138.44,138.44,0,0,1,14.77-3.2,135.39,135.39,0,0,1,21.74-1.72A125.13,125.13,0,0,1,299.06,114a118,118,0,0,1,27.2,9.4c18.28,8.93,36.81,23.77,53.44,47.61,5.89,9.82,19,28.7,21,31.45,2.3-2,14.46-12.12,27-11.89,6.85-.06,13.87,2.87,19.53,11.76a58.17,58.17,0,0,1,6.79-7.83l.49-.46c7.8-7.42,21.31-16.33,39-12.89A49.28,49.28,0,0,1,506,185.42a70.1,70.1,0,0,1,10.85,6.75s67.83,40.28,69.95,133.55c.34,15.08.35,28.2.13,39.63-1.16,59.3-8.61,72.72-8.61,72.72s-8,18.53-25.54,18c-9.08-.27-20.74-5.62-35.19-21.2-.94-1-1.9-2.06-2.86-3.17L505,422l-8.72-3c1.07-1.15,2.06-2.28,3-3.39l-.22-.48a79.61,79.61,0,0,0,5.35-7.11l.33.46.31-.46c5.7-8.56,7.78-15.85,8.11-21.91a34.45,34.45,0,0,0-1.3-11.27c-.24-.87-.5-1.69-.76-2.46-1.54-4.65-9.3-13.81-18.53-23.57-1.61-1.69-3.25-3.4-4.92-5.11-8.06-8.28-16.59-16.51-22.76-22.35l-2.12-1.78c.05.17.1.35.16.52l-3.15-3a134.26,134.26,0,0,0-11.19-8.23l-7.07-8.35-.91-1.08,1.31-.19-1-1.49h0l1,1.49.28,0c-3.27-10.38-11.94-39.31-8.47-44.51,4.24-6.36,4.24-21.2,4.24-21.2a47.8,47.8,0,0,0-1.93-6.76c-1.7-4-3.71-6.24-5.81-7.27l-2.4,1,.44-1.6c-6.54-1.08-13.2,7.24-13.2,7.24l-4.24,6.36-.41,31.33v.74l-3.15-3.73a201.94,201.94,0,0,1-6.45,52.91c-.27,1-.56,2.07-.85,3.12a151.9,151.9,0,0,1-6,17.28c-1.32,3.13-2.77,6.25-4.36,9.31a97.13,97.13,0,0,1-24,30.45,83,83,0,0,1-17.7,11.22c-12.56,3.49-26.5,7.43-41.29,7.3-25.3,0-53.11-11.83-80.77-58.23q-3-5-6-10.61c-3.47-6.47-6.93-13.48-10.38-21.14-2.21-10.49-3.84-17.23-5.12-22.94-.92-4.08-1.65-7.62-2.29-11.61-.84-5.22-1.51-11.2-2.2-20.13-.09-1.12-.17-2.28-.26-3.5-.8-11.16-1.65-26.57-2.83-49.56l-10,6-.41-.13-.23.13-12.72-4.24,2.12-23.32-16.33-12.7-2.53-2-.21-.16-20.81,7.92L39.57,202.8A341.49,341.49,0,0,0,5,353C5,542.43,158.57,696,348,696S691,542.43,691,353,537.43,10,348,10ZM134.82,225.26l-.53-.18,1.14-3,.52.18Zm262,208.36a144.68,144.68,0,0,1,21.53-13.27c8-4.09,16.59-7.25,23.69-6.7a13.87,13.87,0,0,1,11.83,7.46l-10.1,6.73-2.62,1.75-.27-.17-1.85,1.23s-13-9.29-40.8,3.46l-2,1-1.7.87a.64.64,0,0,0,.11-.09L392.42,437S394.08,435.66,396.85,433.62Zm68.66,169.15c.13,1.14,0,1.81-.8,1l4,8.17-.29.48.29.58-3.18,5.3-3.3,5.27L320.35,591.76l-14.7-9-2.26.52,2.35-1.52-.09-.06-2.26.52c38.16-25.44,144.15-61.47,144.15-61.47l8.86,10.13,6,6.82,8.48-2.12a36.26,36.26,0,0,1,5.48,13.88,44.9,44.9,0,0,1,.67,8.79c.05,18.9-10.71,37-12.31,39.55C465.05,599.13,465.72,601.88,465.51,602.77Zm12.6-77.8c-.17,1.4-.34,2.8-.52,4.2a26.37,26.37,0,0,0-4.61-7.36c-18.44-26.64-23-55.26-19.48-68.62.13-.47.26-.91.4-1.34a258.8,258.8,0,0,0,26.59-19l0,.63c.59,9.52,1,19.35,1,29.43A481.85,481.85,0,0,1,478.11,525Z" transform="translate(-5 -10)"/></svg>