<svg xmlns="http://www.w3.org/2000/svg" viewBox="0 0 306.31 381.26">
  <defs>
    <style>
      .cls-1 {
        fill: #d62926;
      }
    </style>
  </defs>
  <title>head_self4</title>
  <g id="圖層_2" data-name="圖層 2">
    <g id="圖層_2-2" data-name="圖層 2">
      <g>
        <polygon class="cls-1" points="64.01 157.66 65.4 168.37 71.66 168.37 84.88 156.54 84.88 152.37 83.49 152.76 73.75 160.02 64.01 153.06 64.01 157.66"/>
        <polygon class="cls-1" points="103.66 139.15 112.01 170.46 102.97 170.46 102.97 149.94 102.27 145.41 103.66 139.15"/>
        <polygon class="cls-1" points="67.11 99.54 73.05 99.49 73.05 84.88 80.7 104.36 74.44 117.58 73.75 104.36 67.35 104.36 67.11 99.54"/>
        <polygon class="cls-1" points="74.44 121.06 74.44 117.58 71.31 120.71 74.44 121.06"/>
        <polygon class="cls-1" points="84.44 93.23 83.49 102.27 79.31 92.53 84.44 93.23"/>
        <polygon class="cls-1" points="97.4 96.71 97.4 102.27 86.27 93.23 97.4 87.31 96.01 93.92 99.49 93.92 102.27 96.71 97.4 96.71"/>
        <polygon class="cls-1" points="112.71 121.75 104.36 121.75 104.36 116.19 112.71 109.23 112.71 121.75"/>
        <polygon class="cls-1" points="116.19 127.32 122.45 126.62 132.76 123.14 116.19 123.14 116.19 127.32"/>
        <polygon class="cls-1" points="116.88 149.58 134.28 148.19 141.93 145.41 146.1 124.45 135.67 143.32 116.19 146.1 116.88 149.58"/>
        <polygon class="cls-1" points="55.66 168.37 62.15 168.37 64.7 173.93 61.92 173.93 61.23 176.02 58.56 176.02 60.53 171.85 55.66 170.46 55.66 168.37"/>
        <polygon class="cls-1" points="75.14 180.89 89.75 181.59 89.05 175.32 82.1 171.15 74.44 175.32 75.14 180.89"/>
        <polygon class="cls-1" points="78.62 187.15 82.1 187.15 72.36 207.33 71.66 201.76 78.62 187.15"/>
        <polygon class="cls-1" points="80.7 217.76 83.49 212.89 94.62 208.72 93.92 205.94 96.01 204.55 100.88 204.55 105.06 200.37 105.06 196.89 100.88 201.07 92.53 201.07 88.66 196.2 76.53 213.59 79.31 214.98 78.62 216.37 80.7 217.76"/>
        <polygon class="cls-1" points="105.06 214.29 86.27 219.16 86.97 220.55 105.06 216.37 105.06 214.29"/>
        <polygon class="cls-1" points="98.1 237.94 105.75 237.94 105.06 224.03 91.14 224.03 86.97 220.55 86.27 219.16 83.49 216.37 80.7 217.76 93.92 234.46 98.1 237.94"/>
        <polygon class="cls-1" points="81.4 246.99 102.97 246.29 89.14 236.67 81.4 236.55 81.4 246.99"/>
        <polygon class="cls-1" points="105.06 208.72 121.75 211.5 114.8 218.46 105.06 217.76 105.06 208.72"/>
        <polygon class="cls-1" points="105.06 186.46 132.88 187.15 132.88 229.59 128.71 229.59 128.71 228.9 123.84 226.81 127.32 224.72 127.32 193.41 105.06 193.41 105.06 186.46"/>
        <polygon class="cls-1" points="112.01 176.72 143.55 177.4 144.02 182.98 149.8 182.97 149.58 186.46 144.71 186.46 144.71 191.33 150.28 191.33 150.28 197.59 144.71 197.59 144.71 194.81 132.88 188.74 132.88 187.15 128.04 187.03 128.71 179.5 112.01 178.8 112.01 176.72"/>
        <polygon class="cls-1" points="70.27 275.22 89.05 274.81 89.41 269.25 88.36 269.25 87.66 265.77 77.23 265.77 77.23 269.25 70.27 269.25 70.27 275.22"/>
        <polygon class="cls-1" points="70.27 277.46 114.8 277.6 108.94 270.64 124.54 270.64 124.54 276.21 124.54 279.69 169.76 269.25 144.71 281.08 126.62 282.47 126.62 288.03 70.27 288.03 70.27 277.46"/>
        <polygon class="cls-1" points="150.28 13.22 178.11 0 178.11 13.91 150.28 13.22"/>
        <polygon class="cls-1" points="167.67 182.98 204.55 182.98 205.24 226.11 169.06 226.11 168.37 212.89 184.37 203.15 176.72 193.41 167.67 189.24 167.67 182.98"/>
        <polygon class="cls-1" points="213.44 207.33 219.16 207.33 223.33 201.76 219.85 210.11 213.59 210.11 213.44 207.33"/>
        <polygon class="cls-1" points="234.46 202.46 238.26 186.6 234.46 186.8 234.46 202.46"/>
        <polygon class="cls-1" points="137.75 81.4 142.63 81.4 142.63 84.88 166.28 82.79 172.54 86.97 172.54 95.31 168.37 95.31 164.89 92.53 141.93 95.31 137.75 81.4"/>
        <polygon class="cls-1" points="105.06 59.83 112.01 55.31 112.01 40.35 105.06 44.53 105.06 59.83"/>
        <polygon class="cls-1" points="84.18 70.97 105.06 57.37 105.06 64.01 105.06 70.97 84.18 70.97"/>
        <polygon class="cls-1" points="120.36 8.35 128.71 8.35 130.8 13.22 116.88 23.66 120.36 8.35"/>
        <polygon class="cls-1" points="59.83 34.09 66.79 38.27 67.11 74.19 72.61 64.17 71.66 49.4 73.91 47.62 73.05 33.4 66.79 33.4 66.79 18.09 64.7 18.09 59.14 30.61 59.83 34.09"/>
        <polygon class="cls-1" points="52.18 56.35 64.7 41.05 55.66 36.18 49.4 48.01 52.18 56.35"/>
        <polygon class="cls-1" points="244.2 36.18 228.9 36.18 225.42 29.22 244.2 29.22 244.2 36.18"/>
        <polygon class="cls-1" points="227.5 88.36 234.46 88.36 253.37 74.44 242.81 73.05 227.5 88.36"/>
        <polygon class="cls-1" points="284.56 88.36 280.38 80.7 264.38 74.44 256.03 80.7 265.07 81.4 272.03 88.36 284.56 88.36"/>
        <polygon class="cls-1" points="267.84 88.36 267.86 98.79 253.25 98.79 253.25 106.45 220.55 106.45 214.29 97.4 206.63 98.1 205.94 118.97 225.42 118.97 226.11 128.01 192.52 128.01 180.19 115.49 202.32 117.58 203.15 105.75 204.55 107.14 204.55 89.75 214.29 89.05 267.84 88.36"/>
        <polygon class="cls-1" points="206.63 172.54 214.29 172.54 214.12 166.63 228.68 179.84 215.68 179.5 215.68 177.41 206.63 177.41 206.63 172.54"/>
        <polygon class="cls-1" points="227.5 148.19 230.29 148.19 230.29 159.32 235.85 159.32 235.85 148.19 240.72 148.19 240.72 160.71 233.07 179.5 228.9 179.5 227.5 178.11 231.68 162.11 213.59 154.45 227.5 157.93 227.5 148.19"/>
        <polygon class="cls-1" points="156.54 33.4 172.54 34.09 172.54 84.88 191.33 84.88 191.33 70.97 203.15 70.97 203.15 58.44 200.37 42.44 187.85 21.57 156.54 21.57 156.54 33.4"/>
        <polygon class="cls-1" points="141.79 47.31 149.58 44.53 149.58 52.18 141.93 54.96 141.79 47.31"/>
        <polygon class="cls-1" points="245.59 290.12 215.68 290.12 215.68 270.5 246.29 270.64 245.59 290.12"/>
        <polygon class="cls-1" points="73.05 307.51 73.05 318.65 4.9 318.65 40.35 317.25 23.99 304.17 72.94 304.17 73.05 307.51"/>
        <polygon class="cls-1" points="0 370.13 93.92 372.91 93.92 379.87 123.14 381.26 118.97 370.83 114.1 370.13 0 366.65 0 370.13"/>
        <polygon class="cls-1" points="86.71 316.18 114.8 350.65 86.97 350.65 86.71 316.18"/>
        <polygon class="cls-1" points="86.27 306.82 114.8 308.32 120.01 302.84 86.97 301.95 86.27 306.82"/>
        <polygon class="cls-1" points="133.87 294.95 145.41 290.12 145.41 288.03 133.58 288.03 133.87 294.95"/>
        <polygon class="cls-1" points="164.89 290.12 198.28 290.12 187.85 294.99 164.89 295.69 164.89 290.12"/>
        <polygon class="cls-1" points="214.12 290.12 214.29 303.34 183.67 304.04 198.28 290.12 214.12 290.12"/>
        <path class="cls-1" d="M155.63,364.27s21.09-3.88,21.78-4.58S199,344.39,199,344.39l13.91-25.74-48-1.4L162.8,352l-7.65-7.65Z"/>
        <polygon class="cls-1" points="268.55 315.17 265.07 332.56 214.29 340.91 211.5 320.73 245.59 320.73 245.59 294.22 268.55 315.17"/>
        <polygon class="cls-1" points="142.24 71.7 143.32 77.23 169.19 76.8 167.44 70.27 156.08 68.79 149.53 70.97 142.24 71.7"/>
        <polygon class="cls-1" points="23.66 109.93 25.05 111.32 24 121.11 21.57 119.67 22.96 113.41 22.96 109.93 23.66 109.93"/>
        <polygon class="cls-1" points="52.18 110.62 42.44 125.58 21.57 125.93 26.44 123.14 36.18 121.75 52.18 110.62"/>
        <polygon class="cls-1" points="296.38 101.58 283 101.92 283.16 106.45 281.27 106.63 281.08 136.36 287.34 136.36 296.38 127.32 296.38 101.58"/>
        <polygon class="cls-1" points="283.16 173.24 285.25 173.24 283.16 189.24 283.16 173.24"/>
        <polygon class="cls-1" points="276.21 115.49 276.21 128.01 267.86 148.19 271.34 129.06 271.34 115.49 276.21 115.49"/>
        <polygon class="cls-1" points="253.25 118.97 251.86 150.97 261.6 150.97 252.55 159.32 249.07 224.03 270.64 224.03 245.59 276.9 245.59 186.46 247.68 118.97 253.25 118.97"/>
        <polygon class="cls-1" points="206.63 244.2 205.94 268.55 159.32 269.25 156.89 267.86 180.89 252.55 183.67 243.51 206.63 244.2"/>
      </g>
      <rect class="cls-1" x="292.31" y="367.26" width="14" height="14"/>
    </g>
  </g>
</svg>
