<svg xmlns="http://www.w3.org/2000/svg" viewBox="0 0 288.74 382.65">
  <defs>
    <style>
      .cls-1 {
        fill: #ffb64c;
      }
    </style>
  </defs>
  <title>head_self3</title>
  <g id="圖層_2" data-name="圖層 2">
    <g id="圖層_2-2" data-name="圖層 2">
      <polygon class="cls-1" points="45.74 112.71 42.96 107.14 38.57 103.99 38.78 98.79 30.59 98.45 37.77 96.77 42.26 99.49 45.04 106.45 45.74 112.71"/>
      <polyline class="cls-1" points="38.7 106.78 42.31 110.41 38.71 109.75 38.7 106.78"/>
      <polygon class="cls-1" points="65.92 140.54 65.92 152.37 79.83 149.58 84.7 146.8 86.09 140.54 65.92 140.54"/>
      <polygon class="cls-1" points="56.17 161.41 65.92 154.45 65.92 151.67 50.61 155.15 46.44 154.45 56.17 161.41"/>
      <polygon class="cls-1" points="74.93 156.03 75.66 164.19 79.83 166.98 85.4 164.89 85.4 161.41 77.74 164.19 77.74 155.15 74.93 156.03"/>
      <polygon class="cls-1" points="63.13 169.76 63.42 161.41 54.09 169.76 63.13 169.76"/>
      <polygon class="cls-1" points="40.87 169.76 48.29 169.76 46.44 159.32 40.87 169.76"/>
      <polygon class="cls-1" points="50 110.19 52.7 110.62 56.63 114.33 56.17 112.01 54.09 107.84 49.91 107.84 50 110.19"/>
      <polygon class="cls-1" points="50.54 121.06 54.78 116.88 56.17 114.1 54.09 112.71 50.84 118.28 50.54 121.06"/>
      <polygon class="cls-1" points="77.05 100.88 69.39 100.19 65.92 102.27 66.61 97.4 71.48 96.71 77.05 100.88"/>
      <polygon class="cls-1" points="94.44 82.1 95.14 98.79 84.7 98.1 81.92 95.31 78.44 95.31 79.83 88.36 87.48 84.18 87.48 81.4 94.44 78.62 94.44 82.1"/>
      <polygon class="cls-1" points="95.14 110.62 86.79 117.58 86.79 123.14 79.13 123.14 79.13 114.1 95.14 106.45 95.14 110.62"/>
      <polygon class="cls-1" points="95.05 96.71 104.88 96.01 120.14 100.19 118.79 124.54 111.83 124.54 118.09 112.71 113.92 111.32 118.09 105.75 116.01 102.27 106.96 98.1 95.14 99.49 95.05 96.71"/>
      <polygon class="cls-1" points="102.09 109.93 107.66 109.93 117.89 105.41 104.88 100.88 104.88 107.14 102.09 109.93"/>
      <polygon class="cls-1" points="98.61 134.28 107.66 132.88 115.31 124.54 104.88 128.01 98.61 128.71 98.61 134.28"/>
      <polygon class="cls-1" points="125.05 110.62 154.27 110.62 154.27 118.28 159.14 118.28 159.14 102.97 150.79 96.71 124.26 96.77 125.05 99.49 124.36 108.53 125.05 110.62"/>
      <polygon class="cls-1" points="39.48 187.85 39.48 183.67 43.65 177.41 40.87 177.41 37.39 185.06 37.39 187.85 39.48 187.85"/>
      <polygon class="cls-1" points="71.48 188.54 90.96 187.85 88.37 183.18 71.48 187.15 71.48 188.54"/>
      <polygon class="cls-1" points="132.23 174.05 137.58 174.63 141.06 177.41 145.23 177.41 143.14 173.93 154.97 173.93 151.17 152.88 138.27 150.97 138.11 159.01 132.23 172.54 132.23 174.05"/>
      <polygon class="cls-1" points="22.08 214.98 34.61 215.68 20 203.15 22.08 214.98"/>
      <polygon class="cls-1" points="10.95 194.11 20 194.11 19.3 198.98 12.34 197.59 11.3 194.99 10.95 194.11"/>
      <polygon class="cls-1" points="70.79 197.59 81.92 197.59 87.48 192.72 87.48 187.97 85.4 187.85 80.53 192.02 67.31 191.33 58.96 214.98 70.79 197.59"/>
      <polygon class="cls-1" points="87.48 192.72 87.48 198.28 83.31 202.46 81.92 197.59 87.48 192.72"/>
      <path class="cls-1" d="M62.83,219c.3.21,3.09-1.19,3.09-1.19l2.78,2.79,18.78-4.87v-2.79l-2.78.7V212.2l-2.78,2.09H80.53l1.39-5.11-2.79.93L77.05,215l-6.26,2.09h-.7l.38-3.54-2.47.06-2.08.7Z"/>
      <polygon class="cls-1" points="88.15 238.67 94.44 238.64 94.44 247.68 85.4 247.68 71.84 238.14 79.13 237.94 80.53 239.33 88.18 239.33 88.15 238.67"/>
      <polygon class="cls-1" points="93.05 224.03 97.22 219.85 87.48 219.16 87.48 225.42 93.05 224.03"/>
      <polygon class="cls-1" points="87.48 205.24 109.05 208.02 101.4 200.37 87.48 198.63 87.48 205.24"/>
      <polygon class="cls-1" points="94.64 180.42 111.14 180.89 111.14 187.85 105.34 188.29 95.14 184.36 94.64 180.42"/>
      <polygon class="cls-1" points="132.71 198.98 127.14 198.98 128.53 205.94 127.84 210.11 127.84 225.42 132.71 211.5 133.4 210.11 132.71 198.98"/>
      <polygon class="cls-1" points="51.3 249.77 70.09 249.77 70.09 267.16 59.65 267.16 59.65 270.64 51.3 270.64 51.3 265.77 55.48 265.77 55.48 259.51 51.3 259.51 51.3 249.77"/>
      <polygon class="cls-1" points="44.45 268.29 44.35 289.43 52.7 289.43 52.7 270.64 51.3 270.64 51.3 268.55 44.45 268.29"/>
      <polygon class="cls-1" points="86.75 272.03 90.93 272.03 96.5 278.99 86.75 278.86 86.75 272.03"/>
      <polygon class="cls-1" points="132.71 192.72 127.14 192.72 127.14 187.85 132.01 187.85 132.01 189.94 133.4 190.18 132.71 192.72"/>
      <polygon class="cls-1" points="150.79 202.46 150.79 208.02 146.62 210.81 145.23 210.81 143.84 210.81 143.84 202.46 150.79 202.46"/>
      <polygon class="cls-1" points="150.13 184.37 150.1 197.59 143.84 197.59 143.84 184.37 150.13 184.37"/>
      <polygon class="cls-1" points="122.97 82.79 125.05 82.79 125.05 78.62 124.36 73.75 122.97 73.75 122.97 82.79"/>
      <polygon class="cls-1" points="94.44 70.27 108.36 68.18 108.36 56.35 102.09 48.7 94.44 52.88 94.44 70.27"/>
      <polygon class="cls-1" points="54.09 50.79 74.26 34.79 87.48 34.79 87.48 58.44 66.61 72.36 55.48 72.36 54.09 50.79"/>
      <polygon class="cls-1" points="98.61 34.79 89.57 34.79 89.57 26.44 97.22 19.48 98.61 24.27 98.61 34.79"/>
      <polygon class="cls-1" points="107.35 19.02 114.62 17.39 113.22 14.61 107.35 19.02"/>
      <polygon class="cls-1" points="70.79 8.35 95.83 0 115.06 9.74 70.79 8.94 70.79 8.35"/>
      <polygon class="cls-1" points="25.56 43.83 28.35 53.57 29.74 71.66 34.61 56.7 31.82 49.4 38.09 37.57 34.61 35.48 25.56 43.83"/>
      <polygon class="cls-1" points="226.63 45.92 225.93 69.57 213.41 69.57 209.93 48.01 226.63 45.92"/>
      <polygon class="cls-1" points="228.72 89.75 246.81 75.83 262.81 82.1 266.98 89.75 273.94 89.75 273.24 84.18 267.69 75.61 236.84 75.07 216.89 89.75 228.72 89.75"/>
      <polygon class="cls-1" points="174.45 72.36 185.58 72.36 185.58 68.18 200.89 68.18 200.89 91.14 196.71 91.14 196.71 74.44 177.93 73.75 178.62 118.97 164.71 118.28 164.01 98.1 173.75 97.4 174.45 72.36"/>
      <polygon class="cls-1" points="196.71 156.54 214.11 163.5 209.93 179.5 196.71 168.72 196.71 156.54"/>
      <polygon class="cls-1" points="208.54 129.41 214.11 129.41 214.11 119.67 207.84 119.67 208.54 129.41"/>
      <polygon class="cls-1" points="132.01 53.57 132.01 66.79 125.05 65.4 124.36 56.35 132.01 53.57"/>
      <polygon class="cls-1" points="146.82 291.51 146.62 300.56 137.58 300.56 137.58 307.51 142.45 307.51 147.32 303.34 145.93 354.13 137.58 345.78 137.58 331.87 120.36 333.36 120.88 310.99 97.22 309.6 102.09 304.73 117.63 304.42 120.88 303.34 120.88 294.3 127.84 291.51 146.82 291.51"/>
      <polyline class="cls-1" points="21.35 109.36 24.16 117.52 33.63 111.69 21.35 109.36"/>
      <polyline class="cls-1" points="7.79 112.91 6.68 121.89 13.23 121.16 7.79 112.91"/>
      <polygon class="cls-1" points="107.92 270.47 107.19 271.93 107.19 281.4 152.19 270.64 140.6 270.47 139.24 268.29 136.32 270.47 107.92 270.47"/>
      <polygon class="cls-1" points="0 106.26 1.91 114.8 5.39 114.8 5.39 102.73 0 106.26"/>
      <polygon class="cls-1" points="3.3 124.54 3.84 126.97 8.87 124.54 4.69 121.06 3.3 121.75 3.3 124.54"/>
      <polygon class="cls-1" points="34.61 112.01 16.08 106.64 18.61 102.27 33.22 102.27 34.61 112.01"/>
      <polygon class="cls-1" points="230.31 120.36 230.11 129.41 223.85 129.41 218.98 125.93 223.15 120.36 230.31 120.36"/>
      <rect class="cls-1" x="274.74" y="368.65" width="14" height="14"/>
    </g>
  </g>
</svg>
