<svg xmlns="http://www.w3.org/2000/svg" viewBox="0 0 309.09 384.79">
  <defs>
    <style>
      .cls-1 {
        fill: #e8ddb1;
      }
    </style>
  </defs>
  <title>head_self1</title>
  <g id="圖層_2" data-name="圖層 2">
    <g id="圖層_2-2" data-name="圖層 2">
      <polyline class="cls-1" points="35.43 129.1 32.7 137.1 47.31 137.1 51.91 136.45 60.86 132.4 66.09 121.1 66.09 144.76 74.44 144.76 79.31 130.15 79.31 124.58 70.97 124.58 69.57 96.75 75.83 96.75 75.83 87.01 91.14 87.71 115.49 75.19 75.14 74.49 75.14 68.92 58.52 96.75 65.4 96.75 66.09 115.54 63.31 109.28 62.67 112.55 63.31 112.75 59.48 116.46 59.05 129.1 35.43 129.1"/>
      <polygon class="cls-1" points="18.09 129.45 25.19 143.69 22.26 143.37 14.81 129.1 18.09 129.45"/>
      <polygon class="cls-1" points="49.4 137.1 50.26 153.47 59.85 151.18 65.73 148.13 52.88 148.93 57.56 137.1 49.4 137.1"/>
      <polygon class="cls-1" points="86.27 156.59 100.19 152.41 100.71 151.42 86.27 154.5 86.27 156.59"/>
      <polygon class="cls-1" points="86.27 150.43 70.27 154.5 66.79 153.11 66.79 161.46 61.23 171.89 58.44 171.89 58.44 173.28 52.88 185.11 45.92 166.33 45.92 157.7 61.92 154.5 66.79 151.02 70.55 152.35 86.27 148.59 86.27 150.43"/>
      <polygon class="cls-1" points="97.78 157.53 98.1 166.33 105.75 163.54 105.75 153.8 97.78 157.53"/>
      <polygon class="cls-1" points="91.84 98.84 89.05 96.75 87.66 96.75 87.22 99.88 91.84 98.84"/>
      <polygon class="cls-1" points="83.49 123.89 99.49 125.28 100.19 105.8 97.4 103.01 89.75 102.32 86.27 104.41 83.49 123.89"/>
      <polygon class="cls-1" points="114.8 76.56 132.19 74.49 137.06 84.92 114.83 84.92 114.8 76.56"/>
      <polygon class="cls-1" points="138 107.13 119.67 100.93 127.32 100.23 136.36 104.41 138 107.13"/>
      <polygon class="cls-1" points="115.49 116.47 115.9 116.44 128.01 115.54 138.45 107.88 128.01 112.06 115.49 112.75 115.49 116.47"/>
      <polygon class="cls-1" points="119.67 146.15 137.06 143.37 143.32 126.67 135.67 126.67 128.01 135.02 118.97 136.41 119.67 146.15"/>
      <polygon class="cls-1" points="122.45 167.02 153.06 158.67 153.65 131.54 153.76 126.67 149.98 112.75 145.41 112.75 148.89 125.97 144.71 148.93 137.06 151.72 119.67 153.11 118.97 149.63 120.36 146.04 118.97 136.41 118.97 132.93 107.84 136.41 111.32 156.59 122.45 167.02"/>
      <polygon class="cls-1" points="102.27 125.28 102.97 133.63 118.67 126.67 115.49 126.67 115.49 125.28 102.27 125.28"/>
      <polygon class="cls-1" points="75.06 171.89 75.14 175.37 70.27 177.46 67.49 177.46 64.7 171.89 75.06 171.89"/>
      <polygon class="cls-1" points="64.7 177.46 66.09 178.85 77.23 178.85 84.88 174.68 91.84 178.85 114.8 179.54 114.8 173.98 105.75 173.98 105.75 172.59 77.23 171.89 76.53 176.76 73.75 177.46 64.7 177.46"/>
      <polygon class="cls-1" points="107.84 183.72 108.53 185.11 91.84 189.28 91.84 187.89 107.84 183.72"/>
      <polygon class="cls-1" points="91.84 190.68 60.45 189.98 91.84 187.89 91.84 190.68"/>
      <polygon class="cls-1" points="24.35 196.24 24.35 217.11 42.44 217.11 39.66 201.11 32.7 199.72 31.31 196.24 24.35 196.24"/>
      <polygon class="cls-1" points="61.9 189.88 74.44 221.29 79.31 217.11 87.66 193.46 100.88 194.16 105.75 190.18 84.88 190.52 75.14 210.85 74.44 205.29 81.51 190.45 61.9 189.88"/>
      <polygon class="cls-1" points="99.49 212.24 107.84 207.37 107.84 203.9 103.66 208.07 98.79 208.07 96.71 209.46 97.4 212.24 99.49 212.24"/>
      <polygon class="cls-1" points="92.53 215.72 99.49 212.24 97.4 217.11 91.14 219.2 90.44 219.2 91.14 215.72 92.53 215.72"/>
      <polygon class="cls-1" points="107.84 209.46 107.84 215.03 105.06 215.72 105.06 214.33 102.27 216.42 100.88 216.42 102.27 211.55 107.84 209.46"/>
      <polygon class="cls-1" points="73.05 228.94 73.05 241.47 83.49 241.47 84.18 241.47 84.18 240.07 99.49 240.31 96.47 237.69 84.18 221.99 80.01 231.03 73.05 228.94"/>
      <polygon class="cls-1" points="107.84 196.64 130.1 196.94 130.1 210.85 121.75 202.5 107.84 201.11 107.84 196.64"/>
      <polygon class="cls-1" points="153.76 237.99 153.76 212.24 148.19 227.55 148.19 232.74 131.96 233.12 131.49 240.77 114.8 240.77 114.8 249.81 111.73 249.81 112.01 263.73 117.58 263.73 117.58 265.82 133.58 265.82 148.19 251.21 125.93 251.21 131.49 250.51 153.76 237.99"/>
      <polygon class="cls-1" points="55.66 247.03 71.66 247.03 71.66 270.22 55.66 270.69 55.66 247.03"/>
      <polygon class="cls-1" points="153.04 201.11 164.86 202.5 164.17 194.16 153.73 192.76 153.04 194.85 153.04 201.11"/>
      <polygon class="cls-1" points="230.29 151.72 230.29 161.46 216.57 157.98 216.37 151.02 212 151.02 212.2 139.89 222.63 140.58 222.63 151.72 230.29 151.72"/>
      <polygon class="cls-1" points="158.63 131.54 162.8 144.76 158.63 145.28 158.63 142.67 155.15 131.54 158.63 131.54"/>
      <polygon class="cls-1" points="128.83 70.59 137.06 69.62 128.67 58.84 128.83 70.59"/>
      <polygon class="cls-1" points="114.8 36.92 145.41 37.65 144.71 55.92 132.88 48.62 128.01 48.62 114.8 55.92 114.8 36.92"/>
      <polygon class="cls-1" points="96.21 36.92 109.93 28.57 109.93 25.09 82.1 36.92 96.21 36.92"/>
      <polygon class="cls-1" points="69.83 0.11 69.67 10.54 67.59 10.51 67.42 21.64 61.66 34.08 62.88 0 69.83 0.11"/>
      <polygon class="cls-1" points="205.94 70.31 233.77 70.31 230.51 50.36 207.33 53.62 205.94 70.31"/>
      <polygon class="cls-1" points="185.06 87.71 187.15 87.71 189.24 100.23 184.64 100.58 185.06 87.71"/>
      <polygon class="cls-1" points="172.54 151.72 184.37 146.15 184.37 151.02 185.61 151.02 185.06 175.37 175.32 176.07 171.68 155.89 179.5 155.89 172.54 151.72"/>
      <polygon class="cls-1" points="31.31 43.88 22.96 60.57 32.7 77.97 31.31 43.88"/>
      <polygon class="cls-1" points="1.39 306.86 1.39 322.17 43.13 320.78 25.74 306.86 2.09 306.86 1.39 306.86"/>
      <polygon class="cls-1" points="89.75 310.34 89.75 356.26 75.83 356.26 62.62 340.95 63.66 322.17 75.83 322.17 75.83 311.04 89.75 310.34"/>
      <polygon class="cls-1" points="89.49 305.19 137.06 306.86 136.32 291.56 89.75 291.56 89.49 305.19"/>
      <polygon class="cls-1" points="115.16 89.06 115.78 98.91 125.36 97.8 140.66 102.17 137.74 89.79 115.16 89.06"/>
      <polygon class="cls-1" points="111.08 160.06 114.44 174.28 152.31 174.28 152.31 161.17 121.72 170.64 111.08 160.06"/>
      <polygon class="cls-1" points="116.19 280.08 127.32 279.73 127.32 274.86 112.01 274.86 116.19 280.08"/>
      <polygon class="cls-1" points="0 114.15 2.62 129.1 7.15 129.1 4.17 119.02 26.44 104.41 0 114.15"/>
      <polygon class="cls-1" points="54.96 114.15 37.57 110.67 27.83 115.19 25.74 113.45 36.18 108.58 54.96 114.15"/>
      <polygon class="cls-1" points="26.86 123.89 38.96 122.5 54 114.15 54.96 114.15 38.96 125.28 29.22 126.67 26.44 124.43 26.86 123.89"/>
      <rect class="cls-1" x="295.09" y="370.79" width="14" height="14"/>
    </g>
  </g>
</svg>
