<svg xmlns="http://www.w3.org/2000/svg" viewBox="0 0 314.83 372.91">
  <defs>
    <style>
      .cls-1 {
        fill: #002c40;
      }
    </style>
  </defs>
  <title>head_self5</title>
  <g id="圖層_2" data-name="圖層 2">
    <g id="圖層_2-2" data-name="圖層 2">
      <polyline class="cls-1" points="46.09 88.71 46.09 84.88 71.14 84.88 71.14 96.01 68.36 89.75 64.18 86.97 55.94 88.71 46.09 88.71"/>
      <polyline class="cls-1" points="20.55 117.23 28 131.49 34.27 132.19 34.27 137.75 29.4 137.75 23.83 133.58 15.72 117.23 20.55 117.23"/>
      <polygon class="cls-1" points="40.83 125.23 50.27 146.1 67.66 142.63 72.53 139.15 72.53 135.67 66.27 139.15 51.66 142.63 50.96 142.63 44.16 125.23 40.83 125.23"/>
      <polygon class="cls-1" points="93.4 148.19 104.53 145.41 111.49 141.93 110.87 136.71 105.93 139.84 105.23 140.54 93.4 144.29 93.4 148.19"/>
      <polygon class="cls-1" points="72.53 144.71 76.71 145.41 92.01 142.13 92.01 138.28 76.01 142.63 72.53 141.23 72.53 144.71"/>
      <polygon class="cls-1" points="81.58 76.35 89.23 96.01 82.97 109.23 82.97 112.01 85.06 112.01 85.06 118.28 80.18 132.88 89.52 132.88 92.71 112.71 89.23 112.01 92.01 93.92 87.84 84.88 94.8 84.88 98.27 83.49 113.58 74.44 113.58 71.66 120.54 68.88 120.54 63.67 96.88 75.83 81.58 75.14 81.58 76.35"/>
      <polygon class="cls-1" points="75.31 84.88 81.58 84.88 81.58 90.78 75.31 91.14 75.31 84.88"/>
      <polygon class="cls-1" points="76.01 96.01 75.98 98.28 80.18 98.1 82.27 101.58 82.27 96.01 76.01 96.01"/>
      <polygon class="cls-1" points="76.53 109.23 80.18 102.97 78.79 100.88 76.01 100.19 76.53 109.23"/>
      <polygon class="cls-1" points="120.74 77.31 143.5 77.92 146.28 89.75 144.89 114.8 148.37 114.8 151.15 89.75 146.28 73.05 148.37 73.05 148.37 64.01 150.45 63.31 150.45 58.44 142.1 57.75 120.54 60.53 120.54 64.7 137.93 62.62 142.8 73.05 120.54 73.05 120.74 77.31"/>
      <polygon class="cls-1" points="121.23 100.88 128.19 100.19 130.97 97.4 130.97 91.14 125.25 89.28 121.23 89.75 121.23 100.88"/>
      <polygon class="cls-1" points="121.93 109.93 135.84 107.84 144.19 96.01 133.76 103.66 121.23 104.36 121.23 110.62 121.93 109.93"/>
      <polygon class="cls-1" points="124.71 137.75 144.19 134.97 154.63 116.88 154.63 114.1 150.31 99.02 151.15 114.8 149.06 114.8 142.8 131.49 125.41 134.28 124.71 137.75"/>
      <polygon class="cls-1" points="158.11 163.5 164.37 148.89 164.37 131.49 160.89 119.67 159.5 119.67 158.8 146.8 128.19 155.15 117.06 144.71 113.58 124.54 124.71 121.06 124.71 114.8 108.77 121.69 109.41 130.8 112.19 130.8 116.65 147.54 126.1 158.63 158.11 149.58 158.11 163.5"/>
      <polygon class="cls-1" points="78.79 217.07 85.75 219.16 89.86 210.22 83.92 206.22 80.18 209.42 78.79 210.81 78.79 217.07"/>
      <polygon class="cls-1" points="113.58 215.68 119.84 214.29 137.24 220.55 137.24 228.9 114.28 228.9 113.58 215.68"/>
      <polygon class="cls-1" points="141.41 191.68 153.24 192.02 153.24 186.46 141.41 180.19 141.41 191.68"/>
      <polygon class="cls-1" points="141.41 196.2 146.28 196.2 146.28 194.11 149.06 194.11 151.84 197.59 144.89 200.37 153.93 200.37 153.93 221.24 141.41 221.24 141.41 196.2"/>
      <polygon class="cls-1" points="164.37 174.63 208.2 174.63 208.9 163.5 210.98 164.19 210.98 171.85 251.34 173.24 250.64 171.85 224.2 171.15 224.2 169.06 214.46 169.06 215.16 164.19 222.81 164.19 222.11 139.15 191.35 139.15 190.81 164.19 200.55 164.19 170.63 166.28 171.32 167.67 167.15 167.67 163.67 164.89 158.11 164.19 158.8 169.06 164.37 174.63"/>
      <polygon class="cls-1" points="159.5 198.98 169.93 192.72 176.89 192.72 176.89 187.85 169.93 187.85 169.93 190.55 158.8 189.24 159.5 198.98"/>
      <polygon class="cls-1" points="159.5 207.08 164.37 206.63 169.93 201.07 171.32 201.07 159.5 213.59 159.5 207.08"/>
      <polygon class="cls-1" points="177.59 217.76 213.76 217.76 213.07 174.63 222.81 174.63 222.81 182.28 229.77 182.28 226.98 189.24 221.42 189.24 222.11 201.76 228.38 201.76 221.42 221.94 221.42 235.85 171.32 235.85 169.93 201.07 172.72 201.07 176.89 197.59 177.59 217.76"/>
      <rect class="cls-1" x="228.38" y="128.71" width="2.09" height="11.13"/>
      <polygon class="cls-1" points="151.15 76.53 174.8 75.14 181.07 78.62 181.76 57.05 158.11 57.05 158.11 62.62 164.37 60.53 175.5 60.53 178.28 68.88 151.15 68.88 151.15 76.53"/>
      <polygon class="cls-1" points="181.13 76.53 190.11 75.83 190.81 108.53 185.94 107.84 185.24 93.23 181.76 91.14 181.13 76.53"/>
      <polygon class="cls-1" points="150.45 86.97 177.25 86.97 173.41 84.18 150.45 86.97"/>
      <polygon class="cls-1" points="113.58 25.05 120.54 25.05 120.54 32.32 113.58 36.18 113.58 25.05"/>
      <polygon class="cls-1" points="114.28 57.05 120.54 53.74 120.54 46.61 113.58 51.48 114.28 57.05"/>
      <polygon class="cls-1" points="123.17 9.93 115.67 16.7 115.67 13.22 115.67 6.96 121.93 6.96 123.17 9.93"/>
      <polygon class="cls-1" points="115.67 16.7 115.02 25.05 101.75 25.05 115.67 16.7"/>
      <polygon class="cls-1" points="137.24 0 150.45 0 150.45 6.26 143.5 7.65 142.8 16 139.32 4.87 137.24 0"/>
      <polygon class="cls-1" points="64.83 27.2 73.46 32.7 75.31 30.34 69.15 24.84 68.53 20.91 64.83 27.2"/>
      <polygon class="cls-1" points="213.07 41.74 252.73 36.18 252.73 27.83 213.07 27.83 213.07 41.74"/>
      <polygon class="cls-1" points="199.85 76.53 199.85 87.66 194.98 88.36 193.01 76.53 199.85 76.53"/>
      <polygon class="cls-1" points="222.81 64.7 222.81 80.7 213.07 80.7 213.07 98.79 204.72 91.14 204.03 64.01 222.81 64.7"/>
      <polygon class="cls-1" points="264.76 72.36 273.6 73.05 279.16 80.01 254.81 80.01 264.76 72.36"/>
      <polygon class="cls-1" points="300.04 66.09 302.82 68.18 306.99 68.18 306.99 75.83 299.51 75.83 293.77 66.09 300.04 66.09"/>
      <polygon class="cls-1" points="168.54 132.88 194.28 130.8 194.28 139.15 196.37 138.45 196.37 119.67 164.37 119.67 168.54 132.88"/>
      <rect class="cls-1" x="215.16" y="89.05" width="2.78" height="21.57"/>
      <polygon class="cls-1" points="261.77 98.1 261.77 110.62 240.2 110.62 229.77 98.1 261.77 98.1"/>
      <polygon class="cls-1" points="158.11 38.96 169.93 32 181.07 36.18 181.07 41.74 169.93 38.27 158.11 43.83 158.11 38.96"/>
      <polygon class="cls-1" points="252.73 25.74 279.86 25.74 278.82 59.6 252.03 59.83 252.73 25.74"/>
      <polygon class="cls-1" points="135.15 279.69 153.24 279.69 153.93 281.77 224.2 281.77 224.2 260.9 176.89 260.9 153.24 272.73 135.15 274.12 135.15 279.69"/>
      <polygon class="cls-1" points="95.23 279.69 94.8 298.47 81.58 299.17 80.89 279.69 95.23 279.69"/>
      <polygon class="cls-1" points="58.62 310.3 7.13 341.61 8.52 358.3 122.62 361.78 123.32 342.3 95.49 342.3 95.49 344.39 62.09 344.39 60.7 310.3 58.62 310.3"/>
      <path class="cls-1" d="M128.54,365.09l35.83.17-.7-30.2.7-12.94-18.09,1.4-.7,38.26-23.65-1.39s-1.39,1.39,0,1.39h5.56Z"/>
      <polygon class="cls-1" points="233.53 281.77 231.85 295.69 221.42 303.34 221.42 310.3 173.41 309.1 173.41 303.34 196.54 303.44 208.94 294.99 222.81 294.99 222.81 281.77 233.53 281.77"/>
      <polygon class="cls-1" points="254.12 281.77 275.69 287.34 295.86 307.51 293.08 338.13 224.2 338.13 224.2 370.13 206.81 340.21 187.33 354.13 164.23 359.37 164.37 355.02 184.07 351.93 207.5 336.04 220.03 311.69 222.81 332.56 273.6 324.21 277.08 306.82 254.12 285.95 254.12 281.77"/>
      <polygon class="cls-1" points="72.11 109.24 66.97 120.36 57.92 124.54 53.58 125.23 67.73 125.26 72.11 120.89 72.11 109.24"/>
      <polygon class="cls-1" points="226.98 64.7 226.98 80.65 234.67 80.55 251.28 64.81 226.98 64.7"/>
      <polygon class="cls-1" points="276.04 80.1 276.04 90.3 268.76 90.3 268.76 96.86 291.64 96.86 291.33 80.83 291.1 80.01 276.04 80.1"/>
      <polygon class="cls-1" points="29.4 112.01 29.4 114.8 11.89 113.84 9.91 107.14 10.94 106.47 29.4 112.01"/>
      <polygon class="cls-1" points="34.32 102.97 39.6 111.21 44.23 110.68 49.93 107.72 47.48 100.19 43.31 98.79 34.32 102.97"/>
      <polygon class="cls-1" points="302.12 165.59 304.21 119.67 295.86 128.01 300.04 128.01 300.04 134.28 288.21 134.28 288.21 165.59 292.38 155.15 298.64 155.15 298.64 165.59 302.12 165.59"/>
      <polygon class="cls-1" points="261.77 107.14 279.16 107.84 279.86 119.67 276.38 136.36 260.38 136.36 261.77 110.62 261.77 107.14"/>
      <polygon class="cls-1" points="254.96 150.97 261.77 150.97 260.38 168.02 254.44 167.67 254.96 150.97"/>
      <polygon class="cls-1" points="8.01 117.25 0.73 117.25 0 97.58 33.5 88.84 64.82 88.84 64.82 116.4 62.64 117.25 62.64 108.51 60.45 101.95 58.99 92.49 31.48 92.99 5.83 101.95 8.01 117.25"/>
      <rect class="cls-1" x="300.83" y="358.91" width="14" height="14"/>
    </g>
  </g>
</svg>
