<svg xmlns="http://www.w3.org/2000/svg" viewBox="0 0 286.83 381.26">
  <defs>
    <style>
      .cls-1 {
        fill: #fb751c;
      }
    </style>
  </defs>
  <title>head_self2</title>
  <g id="圖層_2" data-name="圖層 2">
    <g id="圖層_2-2" data-name="圖層 2">
      <polyline class="cls-1" points="36.92 113.23 41.05 109.23 36.79 107.84 36.92 113.23"/>
      <polyline class="cls-1" points="36.66 102.6 41.05 105.75 40.35 109.23 36.79 105.39 36.66 102.6"/>
      <polygon class="cls-1" points="43.83 129.41 39.66 133.58 35.48 133.58 30.61 145.41 43.13 144.63 44.53 144.02 44.53 147.5 48.01 148.89 64.01 145.41 64.01 141.23 43.83 141.23 43.83 129.41"/>
      <polygon class="cls-1" points="65.4 156.54 61.23 160.02 61.23 168.37 83.49 169.06 83.49 163.5 77.92 165.59 73.75 162.8 73.02 155.15 65.4 156.54"/>
      <polygon class="cls-1" points="48.7 121.06 51.48 121.06 54.96 117.58 54.96 112.71 52.43 115.93 48.7 119.67 48.7 121.06"/>
      <polygon class="cls-1" points="93.23 97.4 93.23 105.06 77.55 112.71 77.92 96.71 93.23 97.4"/>
      <polygon class="cls-1" points="80.11 121.75 81.48 139.15 64.01 139.15 64.01 141.23 61.23 141.23 64.59 120.66 80.11 121.75"/>
      <polygon class="cls-1" points="112.01 109.93 116.19 111.32 109.93 123.14 96.4 123.14 93.23 123.14 93.14 118.1 107.84 116.88 112.01 109.93"/>
      <polygon class="cls-1" points="35.85 170.46 41.05 171.85 35.48 183.67 35.48 186.46 30.61 186.46 30.61 181.59 35.85 170.46"/>
      <polygon class="cls-1" points="54.96 168.37 54.27 173.24 51.48 173.93 48.01 173.93 52.88 171.18 52.88 168.37 54.96 168.37"/>
      <polygon class="cls-1" points="37.57 186.46 69.57 184.37 85.58 180.19 89.05 186.46 93.23 186.46 92.53 176.02 69.57 175.32 70.27 181.59 55.66 180.89 54.96 175.32 43.83 175.32 42.44 173.93 41.74 176.02 37.57 182.28 37.57 186.46"/>
      <polygon class="cls-1" points="92.53 176.37 124.54 177.41 124.54 182.98 136.36 182.98 130.8 177.41 130.1 170.46 92.53 170.46 92.53 176.37"/>
      <polygon class="cls-1" points="30.61 192.72 18.09 192.72 16.7 196.89 18.09 201.59 30.61 212.2 30.61 192.72"/>
      <polygon class="cls-1" points="79.66 196.2 81.4 201.07 73.05 201.07 68.88 196.2 79.66 196.2"/>
      <polygon class="cls-1" points="85.58 205.94 77.23 208.72 85.58 203.85 85.58 205.94"/>
      <polygon class="cls-1" points="66.26 212.05 70.27 212.2 76.94 208.72 75.14 208.72 66.26 212.05"/>
      <polygon class="cls-1" points="84.88 224.03 71.66 224.03 67.49 220.55 85.58 216.37 85.58 224.03 84.88 224.03"/>
      <polygon class="cls-1" points="57.05 213.59 59.83 214.98 59.14 216.37 55.66 214.29 57.05 213.59"/>
      <polygon class="cls-1" points="85.58 203.85 107.84 206.63 107.84 224.03 103.99 227.01 91.14 222.63 102.27 211.5 85.58 208.72 85.58 203.85"/>
      <polygon class="cls-1" points="93.23 186.46 102.64 186.6 93.23 182.98 93.23 186.46"/>
      <polygon class="cls-1" points="125.23 197.59 125.23 200.37 113.41 199.68 113.41 204.55 118.28 204.55 118.28 202.46 121.06 202.46 123.84 205.94 116.19 208.72 125.93 208.72 126.62 205.24 125.23 197.59"/>
      <polygon class="cls-1" points="61.92 246.99 62.62 248.38 68.18 248.38 68.88 269.25 85.58 269.25 85.58 270.64 105.06 270.64 105.75 269.25 134.28 269.25 161.41 252.55 164.19 243.51 143.32 243.51 142.63 210.11 131.49 221.86 131.49 248.38 125.93 248.38 111.32 262.29 95.31 262.29 95.31 265.07 89.75 265.07 89.75 246.29 61.92 246.99"/>
      <polygon class="cls-1" points="130.1 188.54 141.93 190.63 141.93 182.98 130.1 182.98 130.1 188.54"/>
      <polygon class="cls-1" points="131.49 207.33 141.93 201.07 141.93 209.42 136.36 214.98 131.49 215.68 131.49 207.33"/>
      <polygon class="cls-1" points="149.13 212.89 164.89 203.15 157.24 192.72 148.21 188.89 149.13 212.89"/>
      <polygon class="cls-1" points="203.85 186.46 198.98 197.59 194.11 197.59 194.11 207.33 199.68 207.33 206.63 197.59 206.63 186.46 203.85 186.46"/>
      <polygon class="cls-1" points="180.89 171.85 182.98 172.54 182.98 180.19 223.33 181.59 222.63 180.19 213.83 180.19 218.46 165.59 220.55 160.71 220.55 148.19 226.81 148.19 226.11 186.46 194.81 186.46 194.81 182.98 180.19 182.98 180.89 171.85"/>
      <polygon class="cls-1" points="205.24 128.01 168.37 128.01 168.37 146.8 189.94 147.5 189.94 136.36 205.24 137.06 205.24 128.01"/>
      <polygon class="cls-1" points="148.89 95.31 153.76 99.49 153.06 95.31 148.89 95.31"/>
      <polygon class="cls-1" points="100.19 47.31 105.75 44.53 110.62 44.53 122.45 51.48 122.45 66.09 114.8 66.09 100.19 47.31"/>
      <polygon class="cls-1" points="85.58 70.97 92.53 70.97 92.53 61.92 85.58 65.4 85.58 70.97"/>
      <polygon class="cls-1" points="45.22 6.96 100.88 8.35 97.4 23.66 93.92 15.31 86.97 15.31 86.97 21.57 61.23 33.4 72.36 33.4 53.57 48.29 53.57 33.4 47.31 33.4 47.31 18.09 45.22 18.09 45.22 6.96"/>
      <polygon class="cls-1" points="123.14 33.4 122.45 15.31 115.49 16 114.8 23.66 112.71 16 104.66 18.21 97.4 23.66 96.71 33.4 123.14 33.4"/>
      <polygon class="cls-1" points="36.18 0 23.66 42.44 28.52 38.96 32.7 34.09 36.18 36.18 36.18 0"/>
      <polygon class="cls-1" points="36.18 93.23 28.52 75.14 29.92 72.36 27.83 70.27 32.7 55.66 47.31 38.96 47.31 74.44 36.18 93.23"/>
      <polygon class="cls-1" points="185.06 27.83 205.24 27.83 209.42 36.18 185.06 36.18 185.06 27.83"/>
      <polygon class="cls-1" points="198.98 66.79 198.98 73.05 278.99 74.44 278.99 68.88 224.06 67.07 223.33 68.18 211.5 68.18 211.5 66.79 198.98 66.79"/>
      <polygon class="cls-1" points="183.67 106.1 183.67 117.58 176.72 117.58 176.72 99.49 183.67 106.1"/>
      <polygon class="cls-1" points="136.36 128.01 168.37 128.01 173.24 128.01 162.8 116.88 157.24 116.88 153.06 116.88 153.06 123.14 131.49 123.14 131.49 128.01 136.36 128.01"/>
      <polygon class="cls-1" points="136.36 141.93 166.98 139.15 166.98 147.5 162.11 147.5 162.11 142.63 150.28 148.19 155.84 152.37 136.36 149.58 136.36 141.93"/>
      <rect class="cls-1" x="211.5" y="148.19" width="5.57" height="11.13"/>
      <polygon class="cls-1" points="211.5 118.97 221.24 118.97 217.07 124.54 221.24 128.01 212.2 128.01 211.5 118.97"/>
      <polygon class="cls-1" points="201.76 106.45 212.2 118.28 205.94 118.97 189.74 118.97 189.74 97.86 194.81 97.4 201.76 106.45"/>
      <rect class="cls-1" x="233.77" y="98.79" width="6.96" height="6.26"/>
      <polygon class="cls-1" points="123.14 64.01 130.1 64.01 130.1 70.97 121.06 72.36 123.14 64.01"/>
      <polygon class="cls-1" points="141.93 46.61 153.06 50.09 153.76 65.4 130.1 65.4 130.1 52.18 141.93 46.61"/>
      <polygon class="cls-1" points="38.78 318.65 32.7 323.52 34.09 352.74 53.57 352.74 40.35 336.64 41.74 318.65 38.78 318.65"/>
      <polygon class="cls-1" points="67.49 306.82 118.97 309.6 117.58 370.13 94.66 369 95.31 350.65 67.49 315.86 67.49 306.82"/>
      <polygon class="cls-1" points="145.41 311.41 167.67 312.38 182.98 301.95 164.19 303.34 178.49 290.12 168.37 294.99 144.79 295.69 144.71 299.17 136.36 299.17 136.36 306.12 140.54 306.82 145.41 301.95 145.41 311.41"/>
      <polygon class="cls-1" points="226.11 290.12 226.11 320.73 192.29 320.73 193.41 311.69 203.85 304.04 205.24 290.12 226.11 290.12"/>
      <polygon class="cls-1" points="2.78 119.67 1.39 120.36 0 113.41 3.48 113.41 2.78 119.67"/>
      <polygon class="cls-1" points="4.17 100.88 16.7 100.88 14.61 105.06 3.48 109.9 3.48 100.88 4.17 100.88"/>
      <polygon class="cls-1" points="23.43 125.58 32.7 110.62 34.79 116.88 34.46 125.58 23.43 125.58"/>
      <polygon class="cls-1" points="261.6 115.49 261.6 136.36 271.05 136.36 272.03 142.63 260.2 142.63 260.2 150.97 246.99 150.97 256.73 128.01 256.73 115.49 261.6 115.49"/>
      <rect class="cls-1" x="272.83" y="367.26" width="14" height="14"/>
    </g>
  </g>
</svg>
