<svg xmlns="http://www.w3.org/2000/svg" viewBox="0 0 343.13 38.7">
  <defs>
    <style>
      .cls-1, .cls-4 {
        fill: #002c40;
      }

      .cls-1 {
        stroke: #002c40;
        stroke-miterlimit: 10;
        stroke-width: 7px;
      }

      .cls-2 {
        fill: none;
      }

      .cls-3 {
        fill: #e8ddb1;
      }

      .cls-5 {
        fill: #d62926;
      }

      .cls-6 {
        fill: #fb751c;
      }

      .cls-7 {
        fill: #ffb64c;
      }
    </style>
  </defs>
  <title>資產 1</title>
  <g id="圖層_2" data-name="圖層 2">
    <g id="圖層_2-2" data-name="圖層 2">
      <g>
        <g>
          <polygon class="cls-1" points="98.15 11.61 97.1 11.61 97.4 13.28 96.24 11.61 90.98 3.98 81.26 3.98 81.26 11.61 81.26 19.63 81.26 34.7 88.94 34.7 94.84 34.7 94.84 25.26 101.17 34.54 101.45 34.94 111.75 34.94 111.75 11.61 111.75 3.98 98.15 3.98 98.15 11.61"/>
          <path class="cls-1" d="M145.51,8.5Q141.06,4,132.89,4H117.77V34.7h14.8a20.57,20.57,0,0,0,9.44-2,13.9,13.9,0,0,0,5.93-5.62,16.31,16.31,0,0,0,1.52-3.75,15.57,15.57,0,0,0,.5-3.93,15,15,0,0,0-2.05-7.79A15.52,15.52,0,0,0,145.51,8.5Z"/>
          <polygon class="cls-1" points="178.26 3.98 172.53 3.98 170.27 3.98 165.54 10.95 162.8 6.93 160.79 3.98 147.02 3.98 152.18 11.61 158 20.2 158.74 21.29 158.74 34.7 172.34 34.7 172.34 21.29 172.53 21.01 178.03 12.88 178.26 12.79 178.26 12.53 183.99 4.06 184.04 3.98 183.99 3.98 178.26 3.98"/>
          <path class="cls-1" d="M31.24,20a7.88,7.88,0,0,0,3.5-6.81,8.38,8.38,0,0,0-3-6.57,11,11,0,0,0-6.37-2.53A17.84,17.84,0,0,0,23.57,4H3.5V34.7H17.09V23.33A4.33,4.33,0,0,1,21,25.55a6,6,0,0,1,.31.55c.91,1.86,1.49,4.72,1.75,8.6H37.18a34.08,34.08,0,0,0-.57-3.5A24.42,24.42,0,0,0,31.24,20ZM17.47,16.22h-.38V10.3h.82a3,3,0,0,1,2.48.92,3.3,3.3,0,0,1,.74,2.12,3.26,3.26,0,0,1-.19,1.13C20.52,15.63,19.37,16.22,17.47,16.22Z"/>
          <path class="cls-1" d="M70.16,11.61,67.51,4H48.13L38.44,31.87l-1,2.83h13.6l1.78-5.19h10l1.77,5.19H78.18L72.94,19.63ZM55.31,22.26l.87-2.63,1.65-5,1.65,5,.86,2.63Z"/>
          <path class="cls-1" d="M223.44,18.06A39.13,39.13,0,0,0,218,15.54a21,21,0,0,1-3.95-1.83,1.6,1.6,0,0,1-.76-1.15c0-1.21.8-1.81,2.4-1.81q4.31,0,7.63,4.49l2.26-6.49,1.12-3.2a35.75,35.75,0,0,0-12.3-2q-7.26,0-11,2.6a8.41,8.41,0,0,0-1.11.93,9,9,0,0,0-2.61,6.78,7.54,7.54,0,0,0,1.18,4.36,10.48,10.48,0,0,0,1.22,1.46,8.62,8.62,0,0,0,1.58,1.21,30.38,30.38,0,0,0,4.07,1.92,12.78,12.78,0,0,1,3.35,1.73,1.86,1.86,0,0,1,.63,1.31,1.48,1.48,0,0,1-.65,1.23,2.56,2.56,0,0,1-1.62.5,7.87,7.87,0,0,1-4.12-1.32,11.39,11.39,0,0,1-3.59-3.59l-3.32,10.27c.88.34,1.8.64,2.75.91a41.84,41.84,0,0,0,11.3,1.4,28.66,28.66,0,0,0,5.86-.54,14.06,14.06,0,0,0,5.15-2,8.2,8.2,0,0,0,3.41-4.85,10.79,10.79,0,0,0,.33-2.67,8.65,8.65,0,0,0-.94-4.13A7.5,7.5,0,0,0,223.44,18.06Z"/>
          <path class="cls-1" d="M299.68,8.75,298,4H278.64L277,8.75l-2.21,6.35-.54,1.56L268,34.7h13.61L283,30.43l.31-.92h10l1.77,5.19H308.7l-4.35-12.5Zm-12.47,9.33,1.14-3.45,1.33,4Z"/>
          <path class="cls-1" d="M335.67,8.75c-.2-.22-.4-.44-.62-.65a15.86,15.86,0,0,0-22.34,0c-.21.21-.41.43-.61.65a15.28,15.28,0,0,0-4,10.57,16.92,16.92,0,0,0,.44,3.89,15.26,15.26,0,0,0,4.14,7.37,15.11,15.11,0,0,0,5.83,3.75,16,16,0,0,0,5.33.87,15.14,15.14,0,0,0,11.18-4.62c.27-.27.52-.54.77-.82a15.36,15.36,0,0,0,2.71-4.41,16.28,16.28,0,0,0,1.1-6A15.27,15.27,0,0,0,335.67,8.75Z"/>
          <polygon class="cls-1" points="251.39 8.75 251.39 9.48 251.39 15.23 250.4 15.23 244.46 15.23 244.46 8.75 244.46 7.82 244.46 3.98 235.9 3.98 230.86 3.98 230.86 4.55 230.86 8.75 230.86 26.84 230.86 32.81 230.86 34.7 244.46 34.7 244.46 23.65 246 23.29 250.4 23.29 251.39 23.29 251.39 34.7 265 34.7 265 18.83 265 12.75 265 8.75 265 3.98 251.39 3.98 251.39 8.75"/>
        </g>
        <polygon class="cls-2" points="292.01 22.26 290.82 18.68 288.35 18.08 286.97 22.26 292.01 22.26"/>
        <polygon class="cls-2" points="179.17 12.88 179.41 12.79 179.41 12.53 179.17 12.88"/>
        <polygon class="cls-2" points="99.29 14.37 99.29 11.61 98.24 11.61 98.54 13.28 99.29 14.37"/>
        <polygon class="cls-2" points="245.61 23.65 247.15 23.29 245.61 23.29 245.61 23.65"/>
        <path class="cls-3" d="M38.11,34.7h.21a34.08,34.08,0,0,0-.57-3.5l-2.1-.76Z"/>
        <polygon class="cls-4" points="10.15 21.2 4.64 19.2 4.64 30.74 8.54 23.99 10.15 21.2"/>
        <polygon class="cls-4" points="38.6 34.7 47.4 34.7 39.59 31.87 38.6 34.7"/>
        <polygon class="cls-4" points="99.29 14.37 98.54 13.28 102.32 34.54 102.59 34.94 112.9 34.94 112.9 11.61 99.29 11.61 99.29 14.37"/>
        <polygon class="cls-5" points="130.16 11.61 118.92 11.61 118.92 34.7 119.5 34.7 130.16 30.8 130.16 11.61"/>
        <polygon class="cls-2" points="185.18 3.98 185.13 3.98 185.13 4.06 185.18 3.98"/>
        <polygon class="cls-5" points="179.41 3.98 173.68 3.98 173.68 14.89 177.88 13.35 179.17 12.88 179.41 12.53 179.41 3.98"/>
        <polygon class="cls-3" points="251.55 15.23 245.61 15.23 245.61 8.75 236.21 8.75 233.09 26.58 239.51 25.08 245.61 23.65 245.61 23.29 247.15 23.29 251.55 22.25 251.55 15.23"/>
        <polygon class="cls-3" points="292.01 22.26 286.97 22.26 288.35 18.08 284.18 17.08 284.18 30.43 284.5 29.51 294.48 29.51 296.25 34.7 309.84 34.7 305.5 22.2 290.82 18.68 292.01 22.26"/>
        <path class="cls-4" d="M309.71,23.21a15.2,15.2,0,0,0,4.15,7.37,15.08,15.08,0,0,0,5.82,3.75V25.61Z"/>
        <rect class="cls-6" x="99.29" y="3.98" width="13.61" height="7.63"/>
        <rect class="cls-4" x="118.92" y="3.98" width="11.25" height="7.63"/>
        <path class="cls-2" d="M133.37,15.74h-.87v7.2h.35a5.83,5.83,0,0,0,3.55-.85,3.36,3.36,0,0,0,1.1-2.81Q137.5,15.74,133.37,15.74Z"/>
        <path class="cls-6" d="M149.06,11.61h-18.9V30.8l20.44-7.47a15.12,15.12,0,0,0,.5-3.93A15.07,15.07,0,0,0,149.06,11.61ZM136.4,22.09a5.83,5.83,0,0,1-3.55.85h-.35v-7.2h.87q4.13,0,4.13,3.54A3.36,3.36,0,0,1,136.4,22.09Z"/>
        <polygon class="cls-3" points="173.68 3.98 171.41 3.98 166.68 10.95 163.95 6.93 163.95 11.61 153.33 11.61 159.14 20.2 173.68 14.89 173.68 3.98"/>
        <path class="cls-7" d="M146.65,8.5Q142.21,4,134,4h-3.87v7.63h18.9A16,16,0,0,0,146.65,8.5Z"/>
        <polygon class="cls-5" points="163.95 6.93 161.93 3.98 148.16 3.98 153.33 11.61 163.95 11.61 163.95 6.93"/>
        <polygon class="cls-3" points="179.41 12.53 185.13 4.06 185.13 3.98 179.41 3.98 179.41 12.53"/>
        <polygon class="cls-4" points="236.74 5.69 236.21 8.75 245.61 8.75 245.61 7.82 236.74 5.69"/>
        <polygon class="cls-6" points="252.53 9.48 252.53 15.23 251.55 15.23 251.55 22.25 266.14 18.83 266.14 12.75 252.53 9.48"/>
        <polygon class="cls-6" points="281.78 16.5 275.93 15.1 275.38 16.66 277.67 16.13 272.06 34.7 282.73 34.7 284.18 30.43 284.18 17.08 281.78 16.5"/>
        <path class="cls-5" d="M336.2,30.58c.27-.27.52-.54.76-.82l-17.28-4.15v8.72a16,16,0,0,0,5.34.87A15.14,15.14,0,0,0,336.2,30.58Z"/>
        <polygon class="cls-6" points="18.23 34.7 18.23 24.13 10.15 21.2 8.54 23.99 4.64 30.74 4.64 34.7 18.23 34.7"/>
        <path class="cls-3" d="M35.15,30.26l-13-4.71c.11.18.21.36.31.55.91,1.86,1.49,4.72,1.74,8.6h13.9l-2.46-4.26Z"/>
        <path class="cls-6" d="M35.89,13.18a8.41,8.41,0,0,0-3-6.57,11.05,11.05,0,0,0-6.38-2.53V14.47h-.1L31.93,24l3.72,6.45,2.1.76A24.22,24.22,0,0,0,32.38,20,7.86,7.86,0,0,0,35.89,13.18Z"/>
        <polygon class="cls-7" points="14.04 14.47 4.64 14.47 4.64 19.2 10.15 21.2 14.04 14.47"/>
        <polygon class="cls-3" points="50.01 19.63 57.33 19.63 58.97 14.63 60.62 19.63 74.09 19.63 71.31 11.61 66.61 11.61 66.61 3.98 49.27 3.98 39.59 31.87 47.4 34.7 50.01 34.7 50.01 19.63"/>
        <polygon class="cls-5" points="97.39 11.61 82.4 11.61 82.4 19.63 90.09 19.63 90.09 34.7 95.99 34.7 95.99 25.26 102.32 34.54 98.54 13.28 97.39 11.61"/>
        <path class="cls-3" d="M20.37,4l6.06,10.49h.1V4.08A17.53,17.53,0,0,0,24.71,4Z"/>
        <polygon class="cls-3" points="20.09 3.98 4.64 3.98 4.64 14.47 14.04 14.47 20.09 3.98"/>
        <polygon class="cls-5" points="61.49 22.26 56.46 22.26 57.33 19.63 50.01 19.63 50.01 34.7 52.21 34.7 53.98 29.51 63.97 29.51 65.74 34.7 79.32 34.7 74.09 19.63 60.62 19.63 61.49 22.26"/>
        <rect class="cls-6" x="82.4" y="19.63" width="7.68" height="15.07"/>
        <polygon class="cls-6" points="66.61 3.98 66.61 11.61 71.31 11.61 68.66 3.98 66.61 3.98"/>
        <polygon class="cls-3" points="82.4 3.98 82.4 11.61 97.39 11.61 92.13 3.98 82.4 3.98"/>
        <path class="cls-5" d="M18.61,16.22h-.38V14.47H14L10.15,21.2l8.08,2.93v-.8a4.34,4.34,0,0,1,3.93,2.22l13,4.71.5.18L31.93,24l-5.5-9.52H22.09C21.66,15.63,20.51,16.22,18.61,16.22Z"/>
        <path class="cls-5" d="M20.09,4,14,14.47h4.19V10.3h.83a3,3,0,0,1,2.47.92,3.4,3.4,0,0,1,.56,3.25h4.34L20.37,4Z"/>
        <polygon class="cls-4" points="130.16 30.8 119.5 34.7 130.16 34.7 130.16 30.8"/>
        <polygon class="cls-3" points="173.68 14.89 173.68 21.01 179.17 12.88 177.88 13.35 173.68 14.89"/>
        <path class="cls-3" d="M227.43,21a7.5,7.5,0,0,0-2.85-2.91,38.36,38.36,0,0,0-5.42-2.52,21.56,21.56,0,0,1-4-1.83,1.58,1.58,0,0,1-.75-1.15c0-1.21.8-1.81,2.39-1.81q4.32,0,7.63,4.49l2.27-6.49H203.45V7a9,9,0,0,0-2.61,6.78A7.55,7.55,0,0,0,202,18.17a9.26,9.26,0,0,0,1.22,1.46h16.23V29.78l8.57-2a10.79,10.79,0,0,0,.33-2.67A8.65,8.65,0,0,0,227.43,21Z"/>
        <polygon class="cls-4" points="236.21 8.75 232 8.75 232 26.84 233.09 26.58 236.21 8.75"/>
        <path class="cls-4" d="M130.16,34.7h3.55a20.54,20.54,0,0,0,9.44-2,13.84,13.84,0,0,0,5.93-5.62,15.46,15.46,0,0,0,1.52-3.75L130.16,30.8Z"/>
        <polygon class="cls-7" points="159.14 20.2 159.88 21.29 159.88 34.7 173.49 34.7 173.49 21.29 173.68 21.01 173.68 14.89 159.14 20.2"/>
        <path class="cls-6" d="M226.74,8.75l1.12-3.2a35.84,35.84,0,0,0-12.3-2q-7.27,0-11,2.6a8.51,8.51,0,0,0-1.12.93V8.75Z"/>
        <polygon class="cls-6" points="232 4.55 232 8.75 236.21 8.75 236.74 5.69 232 4.55"/>
        <path class="cls-7" d="M204.83,20.84a30.2,30.2,0,0,0,4.06,1.92,12.91,12.91,0,0,1,3.36,1.73,1.86,1.86,0,0,1,.63,1.31,1.5,1.5,0,0,1-.65,1.23,2.57,2.57,0,0,1-1.63.5,7.87,7.87,0,0,1-4.11-1.32,11.29,11.29,0,0,1-3.59-3.59l-3.33,10.27c.88.34,1.8.64,2.75.91l17.16-4V19.63H203.25A8.29,8.29,0,0,0,204.83,20.84Z"/>
        <path class="cls-2" d="M325,21.72a2.9,2.9,0,0,0,2.19-.92,3.21,3.21,0,0,0,.87-2.3,3.22,3.22,0,0,0-.87-2.31,3.08,3.08,0,0,0-4.37,0A3.25,3.25,0,0,0,322,18.5a3.25,3.25,0,0,0,.86,2.3A2.89,2.89,0,0,0,325,21.72Z"/>
        <polygon class="cls-4" points="284.18 8.75 284.18 17.08 288.35 18.08 289.49 14.63 290.82 18.68 305.5 22.2 300.83 8.75 284.18 8.75"/>
        <path class="cls-6" d="M319.68,25.35h20a16.09,16.09,0,0,0,1.11-6,15.23,15.23,0,0,0-4-10.57H313.24a15.27,15.27,0,0,0-4,10.57,16.93,16.93,0,0,0,.43,3.89l10,2.4Zm3.16-9.16a3.08,3.08,0,0,1,4.37,0,3.22,3.22,0,0,1,.87,2.31,3.21,3.21,0,0,1-.87,2.3,3.05,3.05,0,0,1-4.37,0,3.25,3.25,0,0,1-.86-2.3A3.25,3.25,0,0,1,322.84,16.19Z"/>
        <polygon class="cls-6" points="245.61 7.82 245.61 3.98 237.04 3.98 236.74 5.69 245.61 7.82"/>
        <polygon class="cls-6" points="284.18 3.98 284.18 8.75 300.83 8.75 299.17 3.98 284.18 3.98"/>
        <path class="cls-3" d="M325,3.5a15.13,15.13,0,0,0-11.16,4.6c-.22.21-.42.43-.62.65h23.57c-.2-.22-.4-.44-.61-.65A15.16,15.16,0,0,0,325,3.5Z"/>
        <polygon class="cls-5" points="252.53 9.48 266.14 12.75 266.14 8.75 252.53 8.75 252.53 9.48"/>
        <polygon class="cls-5" points="275.93 15.1 281.78 16.5 284.18 17.08 284.18 8.75 278.13 8.75 275.93 15.1"/>
        <rect class="cls-3" x="252.53" y="3.98" width="13.61" height="4.77"/>
        <polygon class="cls-3" points="279.79 3.98 278.13 8.75 284.18 8.75 284.18 3.98 279.79 3.98"/>
        <path class="cls-4" d="M319.68,25.35v.26L337,29.76a15.14,15.14,0,0,0,2.71-4.41Z"/>
        <polygon class="cls-4" points="237.04 3.98 232 3.98 232 4.55 236.74 5.69 237.04 3.98"/>
        <polygon class="cls-6" points="233.09 26.58 232 32.81 232 34.7 245.61 34.7 245.61 23.65 239.51 25.08 233.09 26.58"/>
        <polygon class="cls-6" points="247.15 23.29 251.55 23.29 251.55 22.25 247.15 23.29"/>
        <polygon class="cls-7" points="251.55 23.29 252.53 23.29 252.53 34.7 266.14 34.7 266.14 18.83 251.55 22.25 251.55 23.29"/>
        <polygon class="cls-4" points="272.06 34.7 277.67 16.13 275.38 16.66 269.12 34.7 272.06 34.7"/>
        <path class="cls-7" d="M219.48,34.66a14,14,0,0,0,5.15-2,8.26,8.26,0,0,0,3.42-4.85l-8.57,2Z"/>
        <polygon class="cls-6" points="232 26.84 232 32.81 233.09 26.58 232 26.84"/>
        <path class="cls-4" d="M202.32,33.8a41.9,41.9,0,0,0,11.3,1.4,28.59,28.59,0,0,0,5.86-.54V29.78Z"/>
      </g>
    </g>
  </g>
</svg>
