<svg xmlns="http://www.w3.org/2000/svg" viewBox="0 0 173.46 19.53">
  <defs>
    <style>
      .cls-1 {
        fill: #fb751c;
      }
    </style>
  </defs>
  <title>資產 3</title>
  <g id="圖層_2" data-name="圖層 2">
    <g id="圖層_2-2" data-name="圖層 2">
      <g>
        <path class="cls-1" d="M5.55,7.38v3.75H4.16v3.66H0V6.1A5.7,5.7,0,0,1,1.51,2,5,5,0,0,1,5.32.44,5.19,5.19,0,0,1,9.56,2.63L6.14,5.12a1,1,0,0,0-1-.8c-.65,0-1,.44-1,1.33V7.38Z"/>
        <path class="cls-1" d="M15.72,4.46v4.1A1.51,1.51,0,0,0,15,8.34c-.7,0-1,.53-1,1.6v4.85H10.11V9.2a5,5,0,0,1,1.21-3.54,4.2,4.2,0,0,1,3.23-1.31A7.24,7.24,0,0,1,15.72,4.46Z"/>
        <path class="cls-1" d="M21.7,4.35a5,5,0,0,1,3.72,1.56A5.11,5.11,0,0,1,27,9.66a5.12,5.12,0,0,1-1.58,3.77,5.41,5.41,0,0,1-7.6,0,5.14,5.14,0,0,1-1.58-3.77A5.06,5.06,0,0,1,17.8,5.88,5.38,5.38,0,0,1,21.7,4.35Zm-.11,3.78a1.39,1.39,0,0,0-1,.45,1.5,1.5,0,0,0-.43,1.09,1.52,1.52,0,0,0,.43,1.09,1.4,1.4,0,0,0,1,.45,1.43,1.43,0,0,0,1.06-.45,1.52,1.52,0,0,0,.43-1.09,1.5,1.5,0,0,0-.43-1.09A1.41,1.41,0,0,0,21.59,8.13Z"/>
        <path class="cls-1" d="M37.69,14.79H33.86V9c0-.59-.24-.88-.73-.88s-.72.29-.72.88v5.78H28.58V9.08A4.65,4.65,0,0,1,29.9,5.72a4.3,4.3,0,0,1,3.24-1.37,4.35,4.35,0,0,1,3.52,1.59,5.22,5.22,0,0,1,1,3.45Z"/>
        <path class="cls-1" d="M43.34.79V4.71h1.73V8.76H43.34a2.69,2.69,0,0,0,.39,1.68,1.74,1.74,0,0,0,1.41.46v4H44.7a5.15,5.15,0,0,1-2.46-.61,5,5,0,0,1-1.85-1.64,6.2,6.2,0,0,1-.88-3.5V.79Z"/>
        <path class="cls-1" d="M50.52,7.22V9.94H45.83V7.22Z"/>
        <path class="cls-1" d="M61.69,10.29H55.87a2.73,2.73,0,0,1-.13-.81,2.89,2.89,0,0,1,.18-1h1.95a1.2,1.2,0,0,0-1.28-1.14A1.38,1.38,0,0,0,55.42,8,2.58,2.58,0,0,0,55,9.52a2.76,2.76,0,0,0,.44,1.61,1.33,1.33,0,0,0,1.14.61,1.55,1.55,0,0,0,1.11-.57l2.18,2.62A5.36,5.36,0,0,1,56.45,15a5.23,5.23,0,0,1-3.83-1.53,5.11,5.11,0,0,1-1.55-3.78,5.17,5.17,0,0,1,1.57-3.8,5.24,5.24,0,0,1,3.84-1.54,5.16,5.16,0,0,1,5.25,5.24C61.73,9.73,61.71,10,61.69,10.29Z"/>
        <path class="cls-1" d="M72.39,14.79H68.56V9c0-.59-.25-.88-.73-.88s-.72.29-.72.88v5.78H63.28V9.08A4.65,4.65,0,0,1,64.6,5.72a4.3,4.3,0,0,1,3.24-1.37,4.35,4.35,0,0,1,3.52,1.59,5.22,5.22,0,0,1,1,3.45Z"/>
        <path class="cls-1" d="M80.92.79h3.84V9.31a5.75,5.75,0,0,1-1.23,3.82,5,5,0,0,1-1.8,1.36,5.4,5.4,0,0,1-2.24.5,5.29,5.29,0,0,1-3.86-1.54,5.09,5.09,0,0,1-1.57-3.77,5.14,5.14,0,0,1,1.56-3.74,5,5,0,0,1,3.69-1.58c.23,0,.57,0,1,.06V8.64a1.56,1.56,0,0,0-.94-.37,1.37,1.37,0,0,0-1,.44,1.43,1.43,0,0,0-.43,1,1.37,1.37,0,0,0,.44,1,1.46,1.46,0,0,0,1.06.43q1.47,0,1.47-2Z"/>
        <path class="cls-1" d="M102.08,10.29H96.26a2.73,2.73,0,0,1-.13-.81,2.69,2.69,0,0,1,.19-1h1.94A1.2,1.2,0,0,0,97,7.34,1.38,1.38,0,0,0,95.81,8a2.58,2.58,0,0,0-.45,1.57,2.76,2.76,0,0,0,.44,1.61,1.33,1.33,0,0,0,1.14.61,1.55,1.55,0,0,0,1.11-.57l2.18,2.62A5.36,5.36,0,0,1,96.84,15,5.23,5.23,0,0,1,93,13.46a5.11,5.11,0,0,1-1.55-3.78A5.17,5.17,0,0,1,93,5.88a5.24,5.24,0,0,1,3.84-1.54,5.16,5.16,0,0,1,5.25,5.24C102.12,9.73,102.1,10,102.08,10.29Z"/>
        <path class="cls-1" d="M112.78,14.79H109V9c0-.59-.24-.88-.73-.88s-.72.29-.72.88v5.78h-3.83V9.08A4.65,4.65,0,0,1,105,5.72a4.3,4.3,0,0,1,3.24-1.37,4.35,4.35,0,0,1,3.52,1.59,5.22,5.22,0,0,1,1,3.45Z"/>
        <path class="cls-1" d="M120.47,10.57v3.52a4.67,4.67,0,0,1-1.59.31A4.1,4.1,0,0,1,115.74,13a4.88,4.88,0,0,1-1.28-3.43A5,5,0,0,1,116,5.85a5.27,5.27,0,0,1,3.81-1.5,5.63,5.63,0,0,1,2.29.48,4.28,4.28,0,0,1,1.73,1.29,6.31,6.31,0,0,1,1,3.9v3.36a6.33,6.33,0,0,1-1.55,4.45,5.24,5.24,0,0,1-4,1.7,6.2,6.2,0,0,1-1.91-.38V15.67a3.15,3.15,0,0,0,1.51.41,2,2,0,0,0,1.6-.68,3,3,0,0,0,.57-2V9.6c0-1.08-.44-1.61-1.3-1.61a1.31,1.31,0,0,0-1,.42,1.37,1.37,0,0,0-.42,1,1.3,1.3,0,0,0,.4,1,1.33,1.33,0,0,0,1,.39A1.63,1.63,0,0,0,120.47,10.57Z"/>
        <path class="cls-1" d="M131,4.56V14.79h-3.83V4.56ZM129.06,0a1.83,1.83,0,0,1,1.34.55,1.74,1.74,0,0,1,.57,1.3,1.76,1.76,0,0,1-.53,1.31,2.12,2.12,0,0,1-2.76,0,1.73,1.73,0,0,1-.54-1.31,1.74,1.74,0,0,1,.57-1.3A1.87,1.87,0,0,1,129.06,0Z"/>
        <path class="cls-1" d="M142.33,14.79H138.5V9c0-.59-.24-.88-.73-.88s-.72.29-.72.88v5.78h-3.83V9.08a4.65,4.65,0,0,1,1.32-3.36,4.61,4.61,0,0,1,6.76.22,5.22,5.22,0,0,1,1,3.45Z"/>
        <path class="cls-1" d="M154.62,10.29H148.8a3.09,3.09,0,0,1-.13-.81,2.69,2.69,0,0,1,.19-1h1.94a1.2,1.2,0,0,0-1.28-1.14,1.38,1.38,0,0,0-1.17.61,2.58,2.58,0,0,0-.45,1.57,2.76,2.76,0,0,0,.44,1.61,1.33,1.33,0,0,0,1.14.61,1.55,1.55,0,0,0,1.11-.57l2.18,2.62a5.36,5.36,0,0,1-3.39,1.2,5.25,5.25,0,0,1-3.83-1.53A5.11,5.11,0,0,1,144,9.68a5.16,5.16,0,0,1,1.56-3.8,5.24,5.24,0,0,1,3.84-1.54,5.16,5.16,0,0,1,5.25,5.24C154.66,9.73,154.65,10,154.62,10.29Z"/>
        <path class="cls-1" d="M166.26,10.29h-5.82a2.73,2.73,0,0,1-.13-.81,2.69,2.69,0,0,1,.19-1h1.94a1.2,1.2,0,0,0-1.28-1.14A1.38,1.38,0,0,0,160,8a2.58,2.58,0,0,0-.45,1.57,2.76,2.76,0,0,0,.44,1.61,1.33,1.33,0,0,0,1.14.61,1.55,1.55,0,0,0,1.11-.57l2.18,2.62A5.36,5.36,0,0,1,161,15a5.23,5.23,0,0,1-3.83-1.53,5.11,5.11,0,0,1-1.55-3.78,5.17,5.17,0,0,1,1.57-3.8,5.24,5.24,0,0,1,3.84-1.54,5.16,5.16,0,0,1,5.25,5.24C166.3,9.73,166.28,10,166.26,10.29Z"/>
        <path class="cls-1" d="M173.46,4.46v4.1a1.51,1.51,0,0,0-.73-.22c-.7,0-1,.53-1,1.6v4.85h-3.83V9.2a5,5,0,0,1,1.21-3.54,4.18,4.18,0,0,1,3.23-1.31A7.24,7.24,0,0,1,173.46,4.46Z"/>
      </g>
    </g>
  </g>
</svg>
